<?xml version="1.0" encoding="utf-8"?>
<!-- Generator: Adobe Illustrator 27.9.4, SVG Export Plug-In . SVG Version: 9.03 Build 54784)  -->
<svg version="1.1" id="Layer_1" xmlns="http://www.w3.org/2000/svg" xmlns:xlink="http://www.w3.org/1999/xlink" x="0px" y="0px"
	 viewBox="0 0 94.54 67.66" style="enable-background:new 0 0 94.54 67.66;" xml:space="preserve">
<style type="text/css">
	.st0{fill:#A01C2D;}
</style>
<path class="st0" d="M75.02,22.62C75.11,22.62,74.95,22.68,75.02,22.62c5.24-4.27,4.09-3.2,5.24-4.27c1.32,0-1.32,0,0,0v19.71
	c0,4.15-1.25,7.31-3.7,9.5c-2.45,2.14-5.91,3.25-10.43,3.25c-4.57,0-8.03-1.07-10.43-3.21c-2.5-2.23-3.75-5.4-3.75-9.54V18.35h5.24
	v19.8c0,2.85,0.67,4.95,2.12,6.33c1.44,1.38,3.7,2.1,6.83,2.1c3.08,0,5.34-0.71,6.78-2.1c1.39-1.38,2.11-3.48,2.11-6.33"/>
<g>
	<polygon class="st0" points="25.02,17.98 18.94,17.98 29.91,33.75 18.17,50.46 24.25,50.46 32.98,37.68 41.7,50.46 47.78,50.46 	
		"/>
	<polygon class="st0" points="48.58,17.98 42.53,17.98 36.64,26.96 39.7,31.14 	"/>
</g>
</svg>
